<svg xmlns="http://www.w3.org/2000/svg" xmlns:xlink="http://www.w3.org/1999/xlink" width="376.265" height="42.626" viewBox="0 0 376.265 42.626">
  <defs>
    <clipPath id="clip-path">
      <path id="Path_24" data-name="Path 24" d="M38.228,36.859h0V50.344c8.71,5.3,17.6,5.391,24.979,2.234,3.723-1.619,6.645-4.315,9.762-6A22.345,22.345,0,0,1,82.027,43.9a23.682,23.682,0,0,1,14.064,3.427A21.751,21.751,0,0,1,100.5,50.8c-.257-.2-6.983-5.039-17.285-2.425a25.265,25.265,0,0,0-8.062,3.857c-2.833,1.963-5.82,4.649-9.713,6.719a28.4,28.4,0,0,1-27.216-.371v.174c9.949,6.064,20.1,6.167,28.537,2.559,4.253-1.852,7.59-4.927,11.15-6.861A25.554,25.554,0,0,1,88.258,51.4a27.068,27.068,0,0,1,16.063,3.913,24.856,24.856,0,0,1,5.037,3.97c-.286-.227-7.971-5.754-19.745-2.767a28.91,28.91,0,0,0-9.2,4.4c-3.234,2.242-6.645,5.31-11.1,7.673a32.406,32.406,0,0,1-31.092-.432v.44C49.673,75.582,61.357,75.7,71.06,71.554c4.888-2.131,8.727-5.665,12.821-7.885a29.3,29.3,0,0,1,11.892-3.518,31.185,31.185,0,0,1,20.382,5.763V36.859Z" transform="translate(-38.225 -36.859)" fill="#fff"/>
    </clipPath>
  </defs>
  <g id="Group_480" data-name="Group 480" transform="translate(-38.225 -33.413)">
    <path id="Path_1" data-name="Path 1" d="M104.772,59.92c-.546-.244-.585-.384-.585-1.33,0-1.75.158-3.151.2-3.711.037-.384.115-.562.311-.562.234,0,.273.106.273.385a5.493,5.493,0,0,0,.118,1.3c.585,2.592,3.162,3.572,5.775,3.572,3.747,0,5.58-2.416,5.58-4.656,0-2.419-1.13-3.817-4.486-6.3l-1.758-1.3c-4.137-3.048-5.073-5.219-5.073-7.6,0-3.747,3.123-6.3,8.078-6.3a16.771,16.771,0,0,1,3.631.351,7.1,7.1,0,0,0,1.364.174c.313,0,.389.07.389.246s-.155,1.331-.155,3.71c0,.562-.079.805-.274.805-.233,0-.272-.175-.311-.453a5.615,5.615,0,0,0-.507-1.751c-.234-.385-1.286-1.857-4.878-1.857-2.693,0-4.8,1.507-4.8,4.061,0,2,1.015,3.258,4.762,5.885l1.091.768c4.607,3.258,5.7,5.429,5.7,8.229a7.008,7.008,0,0,1-3.317,5.812A11.125,11.125,0,0,1,110,60.867a12.983,12.983,0,0,1-5.228-.947" transform="translate(21.407 0)" fill="#fff"/>
    <path id="Path_2" data-name="Path 2" d="M144.3,50.637c0,2.873.038,5.219.195,6.444.119.876.195,1.436,1.248,1.576a14.841,14.841,0,0,0,1.523.139c.233,0,.311.14.311.245,0,.142-.193.246-.584.246-1.873,0-4.058-.1-4.254-.1-.158,0-2.38.1-3.395.1-.389,0-.546-.07-.546-.246a.25.25,0,0,1,.273-.245,5.015,5.015,0,0,0,1.013-.139c.7-.14.82-.736.938-1.611.156-1.227.156-3.468.156-6.339V47.73c0-.14-.078-.175-.195-.175H126.664c-.117,0-.195.034-.195.175v2.976c0,2.872,0,5.148.156,6.374.117.876.234,1.436,1.249,1.576a15.455,15.455,0,0,0,1.559.139.253.253,0,0,1,.276.245c0,.142-.158.246-.547.246-1.911,0-4.1-.1-4.253-.1-.2,0-2.382.1-3.434.1-.351,0-.546-.07-.546-.246a.251.251,0,0,1,.273-.245,5.431,5.431,0,0,0,1.053-.139c.664-.14.742-.7.9-1.576a54.664,54.664,0,0,0,.195-6.444V45.383c0-4.62,0-5.462-.078-6.407-.078-1.016-.273-1.5-1.4-1.648-.274-.033-.858-.069-1.171-.069a.314.314,0,0,1-.274-.244c0-.175.156-.246.547-.246,1.56,0,3.746.072,3.942.072.156,0,2.342-.072,3.395-.072.389,0,.546.072.546.246a.314.314,0,0,1-.273.244,4.319,4.319,0,0,0-.858.069c-.936.177-1.131.6-1.209,1.648-.04.944-.04,1.854-.04,6.478v.628c0,.177.078.177.195.177h14.324c.117,0,.195,0,.195-.177v-.628c0-4.624-.04-5.534-.078-6.478-.078-1.016-.234-1.5-1.366-1.648-.274-.033-.86-.069-1.172-.069a.276.276,0,0,1-.272-.244c0-.175.154-.246.546-.246,1.522,0,3.744.072,3.9.072.2,0,2.382-.072,3.395-.072.389,0,.585.072.585.246,0,.106-.155.244-.313.244a4.507,4.507,0,0,0-.857.069c-.9.177-1.093.6-1.171,1.648-.078.944-.078,1.787-.078,6.407Z" transform="translate(26.675 1.089)" fill="#fff"/>
    <path id="Path_3" data-name="Path 3" d="M157.846,36.453c7.726,0,13.58,4.237,13.58,11.17,0,6.654-5.5,12.153-13.776,12.153-9.4,0-13.423-6.339-13.423-11.7,0-4.8,4.135-11.624,13.619-11.624m.78,22.1c3.083,0,9.289-1.47,9.289-10.085,0-7.143-4.84-10.89-10.265-10.89-5.737,0-9.872,3.221-9.872,9.7,0,6.934,4.642,11.276,10.848,11.276" transform="translate(34.401 0.987)" fill="#fff"/>
    <path id="Path_4" data-name="Path 4" d="M170.9,45.385c0-4.621,0-5.464-.079-6.408-.077-1.016-.273-1.5-1.405-1.646-.272-.034-.858-.07-1.17-.07a.312.312,0,0,1-.273-.245c0-.175.155-.245.546-.245,1.562,0,3.864.07,4.058.07.351,0,3.239-.07,4.294-.07,2.184,0,4.6.175,6.4,1.3a5.118,5.118,0,0,1,2.382,4.061c0,2.208-1.015,4.343-4.215,6.795,2.811,3.152,5.191,5.848,7.182,7.7,1.832,1.682,2.964,1.962,3.824,2.066a7.031,7.031,0,0,0,1.208.1.293.293,0,0,1,.314.246c0,.175-.2.244-.82.244H191a7.592,7.592,0,0,1-3.668-.595c-1.483-.7-2.732-2.135-4.685-4.378-1.444-1.611-2.964-3.536-3.706-4.34a.553.553,0,0,0-.47-.176l-4.37-.07c-.155,0-.233.07-.233.246v.7c0,2.872,0,5.182.156,6.409.115.874.31,1.434,1.366,1.575a14.18,14.18,0,0,0,1.522.139c.233,0,.273.14.273.246,0,.139-.158.244-.547.244-1.873,0-4.058-.1-4.215-.1-.038,0-2.34.1-3.395.1-.352,0-.546-.069-.546-.244a.25.25,0,0,1,.272-.246,5.548,5.548,0,0,0,1.054-.139c.664-.14.742-.7.9-1.575a54.718,54.718,0,0,0,.195-6.444Zm2.966,2.521a.435.435,0,0,0,.233.387,12.922,12.922,0,0,0,3.784.454,4.888,4.888,0,0,0,2.578-.526c1.17-.7,2.068-2.276,2.068-4.551,0-3.713-2.264-5.848-5.931-5.848a16.711,16.711,0,0,0-2.46.174.387.387,0,0,0-.272.351Z" transform="translate(42.108 1.089)" fill="#fff"/>
    <path id="Path_5" data-name="Path 5" d="M190.7,45.444c0-4.621,0-5.464-.078-6.409-.079-1.015-.274-1.5-1.405-1.645-.273-.034-.858-.07-1.171-.07a.316.316,0,0,1-.274-.246c0-.174.158-.244.547-.244,1.562,0,3.785.07,3.982.07.233,0,7.413.034,8.194,0,.664-.034,1.289-.14,1.563-.175a2.3,2.3,0,0,1,.468-.139c.117,0,.155.139.155.279a13.35,13.35,0,0,0-.272,1.4c-.04.281-.118,1.611-.2,1.962-.04.139-.155.314-.313.314-.195,0-.273-.14-.273-.385a2.963,2.963,0,0,0-.195-1.05c-.236-.49-.585-.7-2.46-.91-.584-.069-4.564-.1-4.955-.1-.158,0-.2.1-.2.317v8.086c0,.212,0,.317.2.317.429,0,4.955,0,5.737-.07a2.814,2.814,0,0,0,1.678-.421c.233-.209.391-.384.506-.384s.2.07.2.245a14.451,14.451,0,0,0-.273,1.645c-.078.595-.156,1.717-.156,1.926,0,.248-.078.562-.313.562-.156,0-.234-.1-.234-.281a2.385,2.385,0,0,0-.156-.98c-.117-.421-.428-.771-1.755-.91-.936-.106-4.605-.142-5.191-.142-.2,0-.234.106-.234.211V50.7c0,1.013-.038,4.481,0,5.077.078,1.995.7,2.382,4.1,2.382a12.633,12.633,0,0,0,3.433-.317,2.28,2.28,0,0,0,1.56-2.065c.079-.35.156-.456.352-.456s.233.245.233.456a22.08,22.08,0,0,1-.468,2.87c-.234.772-.585.772-1.913.772-2.575,0-4.566-.07-5.97-.106-1.444-.069-2.343-.069-2.849-.069-.079,0-.742,0-1.484.033-.664.036-1.444.072-1.989.072-.352,0-.547-.072-.547-.246a.25.25,0,0,1,.273-.245c.313,0,.742-.1,1.054-.139.662-.107.74-.7.9-1.576a54.307,54.307,0,0,0,.2-6.443Z" transform="translate(48.533 1.03)" fill="#fff"/>
    <path id="Path_6" data-name="Path 6" d="M208.257,57.085a12.732,12.732,0,0,1-4.722-10.366,13.23,13.23,0,0,1,4.37-9.56c2.343-2.1,5.894-3.746,11.9-3.746a37.188,37.188,0,0,1,5.658.42,37.914,37.914,0,0,0,3.98.526c.431.033.507.175.507.385,0,.279-.117.7-.195,1.96-.079,1.155-.079,3.081-.117,3.607s-.118.735-.351.735c-.274,0-.314-.245-.314-.735a4.608,4.608,0,0,0-1.638-3.571c-1.367-1.05-4.37-2-7.8-2-5.191,0-7.609,1.366-8.975,2.555-2.849,2.453-3.513,5.568-3.513,9.141,0,6.688,5.735,12.816,14.086,12.816,2.927,0,5.231-.315,6.792-1.752a6.354,6.354,0,0,0,1.444-2.94c.077-.385.155-.526.389-.526.195,0,.274.246.274.526a32.892,32.892,0,0,1-.86,4.482c-.234.666-.313.736-1.016,1.016a25.019,25.019,0,0,1-7.024.8c-5.852,0-9.794-1.3-12.877-3.78" transform="translate(53.648 0)" fill="#fff"/>
    <path id="Path_7" data-name="Path 7" d="M236.893,37.5c.43-.981.585-1.155.82-1.155.352,0,.469.419.821,1.085.622,1.26,6.125,13.551,8.233,18.069,1.248,2.661,2.186,3.046,2.927,3.256a5.318,5.318,0,0,0,1.366.175c.2,0,.429.072.429.246s-.391.244-.78.244c-.509,0-3.045,0-5.425-.069-.664-.034-1.209-.034-1.209-.211,0-.139.079-.139.234-.211a.54.54,0,0,0,.311-.8L241.538,51.3c-.078-.14-.118-.175-.314-.175H233.3a.357.357,0,0,0-.351.245L231,56.133a5.607,5.607,0,0,0-.507,2c0,.595.586.8,1.17.8h.314c.272,0,.35.1.35.246,0,.175-.195.244-.506.244-.82,0-2.693-.1-3.084-.1-.351,0-2.069.1-3.474.1-.428,0-.662-.069-.662-.244,0-.142.156-.246.313-.246.234,0,.742-.036,1.013-.07,1.56-.175,2.225-1.225,2.889-2.73Zm3.825,12.4c.156,0,.156-.07.118-.208l-3.395-8.16c-.2-.456-.391-.456-.585,0l-3.2,8.16c-.04.138,0,.208.117.208Z" transform="translate(60.485 0.953)" fill="#fff"/>
    <path id="Path_8" data-name="Path 8" d="M249.035,45.385c0-4.621,0-5.464-.078-6.409-.078-1.015-.274-1.5-1.4-1.645-.274-.034-.86-.07-1.171-.07a.315.315,0,0,1-.274-.246c0-.174.156-.244.547-.244,1.56,0,3.707.07,3.98.07.742,0,3.318-.07,4.878-.07,4.411,0,5.971,1.225,6.556,1.681a4.812,4.812,0,0,1,1.717,3.572c0,4.273-3.591,7.109-8.858,7.109a8.567,8.567,0,0,1-.975-.037c-.158,0-.352-.139-.352-.278,0-.246.195-.315.9-.315,3.707,0,6.36-2.1,6.36-4.8a5.7,5.7,0,0,0-1.951-4.517,6.3,6.3,0,0,0-4.644-1.436,12.849,12.849,0,0,0-1.913.211c-.2.034-.273.245-.273.559V50.638c0,2.87,0,5.216.156,6.443.117.876.313,1.436,1.366,1.576a13.945,13.945,0,0,0,1.521.139.252.252,0,0,1,.275.245c0,.142-.156.246-.547.246-1.874,0-4.137-.1-4.293-.1-.118,0-2.342.1-3.395.1-.351,0-.547-.072-.547-.246a.251.251,0,0,1,.274-.245,5.418,5.418,0,0,0,1.053-.139c.664-.14.74-.7.9-1.576a54.32,54.32,0,0,0,.2-6.443Z" transform="translate(67.465 1.089)" fill="#fff"/>
    <path id="Path_9" data-name="Path 9" d="M268.9,50.637c0,2.873,0,5.219.156,6.444.118.876.233,1.436,1.249,1.576a15.372,15.372,0,0,0,1.562.139.251.251,0,0,1,.272.245c0,.142-.156.246-.546.246-1.913,0-4.137-.1-4.293-.1-.195,0-2.34.1-3.4.1-.348,0-.544-.07-.544-.246a.25.25,0,0,1,.273-.245,5.417,5.417,0,0,0,1.053-.139c.664-.14.782-.7.9-1.576.156-1.225.195-3.571.195-6.444V45.383c0-4.62,0-5.462-.077-6.407-.079-1.016-.352-1.47-1.094-1.611a6.809,6.809,0,0,0-1.052-.106.278.278,0,0,1-.276-.244c0-.175.156-.246.547-.246,1.132,0,3.278.072,3.473.072.156,0,2.38-.072,3.434-.072.389,0,.546.072.546.246a.314.314,0,0,1-.273.244,4.344,4.344,0,0,0-.86.069c-.934.177-1.13.6-1.208,1.648-.04.944-.04,1.787-.04,6.407Z" transform="translate(73.039 1.089)" fill="#fff"/>
    <path id="Path_10" data-name="Path 10" d="M285.4,50.739c0,2.873,0,5.219.156,6.444.118.876.273,1.436,1.327,1.576a14.539,14.539,0,0,0,1.562.139c.233,0,.272.14.272.245,0,.142-.156.246-.546.246-1.873,0-4.058-.1-4.253-.1-.156,0-2.536.1-3.552.1-.389,0-.544-.07-.544-.246,0-.1.077-.211.273-.211a5.027,5.027,0,0,0,1.013-.139c.7-.14.9-.735,1.016-1.611.155-1.225.155-3.571.155-6.444v-12.5l-4.956.07c-2.144.036-2.966.246-3.473.944a4.8,4.8,0,0,0-.547.947c-.077.245-.195.282-.351.282a.247.247,0,0,1-.233-.248c0-.314.7-2.975.742-3.22.078-.176.233-.56.351-.56a12.938,12.938,0,0,0,1.521.347c.976.107,2.3.143,2.693.143h12.957a18.6,18.6,0,0,0,2.458-.143c.509-.068.82-.139.978-.139s.155.176.155.352c0,.909-.118,3.045-.118,3.395a.344.344,0,0,1-.313.384c-.155,0-.233-.1-.273-.525l-.038-.313c-.117-.913-.858-1.578-4.137-1.648l-4.293-.07Z" transform="translate(76.099 0.987)" fill="#fff"/>
    <path id="Path_11" data-name="Path 11" d="M300.356,37.5c.43-.981.585-1.155.82-1.155.351,0,.469.419.819,1.085.625,1.26,6.127,13.551,8.235,18.069,1.249,2.661,2.185,3.046,2.927,3.256a5.326,5.326,0,0,0,1.366.175c.2,0,.43.072.43.246s-.391.244-.78.244c-.51,0-3.045,0-5.427-.069-.664-.034-1.208-.034-1.208-.211,0-.139.077-.139.233-.211a.54.54,0,0,0,.311-.8L305,51.3c-.077-.14-.117-.175-.313-.175h-7.921a.359.359,0,0,0-.352.245l-1.95,4.763a5.577,5.577,0,0,0-.507,2c0,.595.585.8,1.17.8h.314c.272,0,.35.1.35.246,0,.175-.195.244-.507.244-.819,0-2.692-.1-3.082-.1-.351,0-2.069.1-3.474.1-.429,0-.664-.069-.664-.244,0-.142.156-.246.314-.246.232,0,.742-.036,1.013-.07,1.56-.175,2.225-1.225,2.888-2.73Zm3.825,12.4c.156,0,.156-.07.118-.208l-3.4-8.16q-.294-.683-.585,0l-3.2,8.16c-.037.138,0,.208.118.208Z" transform="translate(81.08 0.953)" fill="#fff"/>
    <path id="Path_12" data-name="Path 12" d="M315.62,50.706c0,4.378.078,6.164.7,6.688.544.491,1.872.7,4.564.7,1.8,0,3.318-.036,4.136-.91a3.467,3.467,0,0,0,.82-1.682c.038-.209.156-.384.352-.384.155,0,.233.139.233.454a16.874,16.874,0,0,1-.507,2.976c-.234.7-.35.807-2.184.807-2.46,0-4.372-.036-5.972-.1-1.56-.036-2.731-.07-3.746-.07-.156,0-.742,0-1.405.034-.7.036-1.445.07-1.989.07-.35,0-.547-.07-.547-.245a.251.251,0,0,1,.274-.246,5.43,5.43,0,0,0,1.053-.139c.664-.14.742-.7.9-1.576a54.655,54.655,0,0,0,.195-6.443V45.384c0-4.621,0-5.462-.078-6.408-.078-1.016-.273-1.5-1.4-1.646-.274-.034-.86-.07-1.172-.07a.312.312,0,0,1-.272-.244c0-.175.155-.245.546-.245,1.562,0,3.707.07,3.9.07.156,0,2.731-.07,3.786-.07.351,0,.547.07.547.245,0,.106-.158.209-.274.209-.234,0-.742.034-1.131.07-1.013.176-1.209.63-1.289,1.681-.038.946-.038,1.787-.038,6.408Z" transform="translate(88.061 1.09)" fill="#fff"/>
    <path id="Path_13" data-name="Path 13" d="M105.931,66.65a4.442,4.442,0,0,1-1.744-3.686,4.66,4.66,0,0,1,1.615-3.392,6.322,6.322,0,0,1,4.368-1.331,15.7,15.7,0,0,1,2.086.146,12.194,12.194,0,0,0,1.468.192c.147,0,.179.056.179.13,0,.1-.032.249-.065.7-.017.411-.017,1.1-.032,1.273s-.082.264-.164.264c-.1,0-.114-.087-.114-.264a1.552,1.552,0,0,0-.6-1.244,5.048,5.048,0,0,0-2.82-.689,4.734,4.734,0,0,0-3.228.865,3.827,3.827,0,0,0-1.289,3.246c0,2.385,2.1,4.5,5.168,4.5a3.272,3.272,0,0,0,2.363-.584,2.229,2.229,0,0,0,.555-1.038c.033-.131.049-.176.146-.176.066,0,.131.087.131.176a12,12,0,0,1-.342,1.593c-.082.234-.115.278-.359.368a9.49,9.49,0,0,1-2.592.276,7.278,7.278,0,0,1-4.727-1.331" transform="translate(21.407 8.057)" fill="#fff"/>
    <path id="Path_14" data-name="Path 14" d="M124.018,58.241c3.225,0,5.67,1.77,5.67,4.668,0,2.778-2.3,5.073-5.754,5.073-3.929,0-5.607-2.648-5.607-4.886,0-2,1.729-4.854,5.69-4.854m.324,9.228c1.287,0,3.88-.612,3.88-4.211a4.2,4.2,0,0,0-4.288-4.55,3.761,3.761,0,0,0-4.122,4.052,4.4,4.4,0,0,0,4.53,4.709" transform="translate(25.996 8.057)" fill="#fff"/>
    <path id="Path_15" data-name="Path 15" d="M135.008,61.972c0-1.931,0-2.282-.033-2.677-.032-.425-.114-.629-.587-.686a4.731,4.731,0,0,0-.489-.032.13.13,0,0,1-.113-.1c0-.073.064-.1.228-.1.652,0,1.613.029,1.694.029.148,0,1.352-.029,1.793-.029a5.141,5.141,0,0,1,2.673.54,2.138,2.138,0,0,1,1,1.7c0,.921-.425,1.812-1.763,2.837,1.176,1.317,2.17,2.442,3,3.217a2.719,2.719,0,0,0,1.6.864,2.867,2.867,0,0,0,.506.045.12.12,0,0,1,.13.1c0,.073-.081.1-.342.1h-.9a3.166,3.166,0,0,1-1.532-.249,7,7,0,0,1-1.956-1.828c-.6-.673-1.238-1.478-1.548-1.815a.233.233,0,0,0-.2-.073l-1.827-.029c-.064,0-.1.029-.1.1v.293c0,1.2,0,2.166.066,2.677.048.366.131.6.571.657a5.263,5.263,0,0,0,.636.061c.1,0,.113.057.113.1s-.065.1-.227.1c-.784,0-1.7-.045-1.762-.045-.016,0-.977.045-1.419.045-.146,0-.228-.029-.228-.1a.1.1,0,0,1,.113-.1,2.117,2.117,0,0,0,.442-.061c.276-.057.309-.291.374-.657a22.621,22.621,0,0,0,.082-2.691Zm1.238,1.053a.183.183,0,0,0,.1.162,5.428,5.428,0,0,0,1.584.189A2.02,2.02,0,0,0,139,63.155a2.12,2.12,0,0,0,.864-1.9,2.26,2.26,0,0,0-2.478-2.444,7.222,7.222,0,0,0-1.027.073.164.164,0,0,0-.114.147Z" transform="translate(31.013 8.1)" fill="#fff"/>
    <path id="Path_16" data-name="Path 16" d="M148.817,61.97c0-1.93,0-2.281-.032-2.677-.033-.424-.115-.629-.587-.687-.115-.015-.36-.028-.49-.028a.131.131,0,0,1-.114-.1c0-.073.065-.1.228-.1.652,0,1.548.029,1.664.029.31,0,1.384-.029,2.037-.029a4.011,4.011,0,0,1,2.739.7,2,2,0,0,1,.718,1.493c0,1.784-1.5,2.97-3.7,2.97a3.478,3.478,0,0,1-.407-.016c-.066,0-.147-.058-.147-.118,0-.1.081-.13.375-.13,1.548,0,2.656-.878,2.656-2a2.374,2.374,0,0,0-.815-1.887,2.629,2.629,0,0,0-1.939-.6,5.4,5.4,0,0,0-.8.087c-.081.015-.114.1-.114.234v5.062c0,1.2,0,2.179.065,2.689.049.368.13.6.571.66a5.877,5.877,0,0,0,.636.058.105.105,0,0,1,.114.1c0,.056-.065.1-.229.1-.781,0-1.727-.045-1.792-.045-.049,0-.979.045-1.419.045-.147,0-.229-.029-.229-.1a.106.106,0,0,1,.114-.1,2.249,2.249,0,0,0,.441-.058c.278-.057.31-.291.375-.66a22.592,22.592,0,0,0,.082-2.689Z" transform="translate(35.494 8.1)" fill="#fff"/>
    <path id="Path_17" data-name="Path 17" d="M165.726,58.241c3.225,0,5.67,1.77,5.67,4.668,0,2.778-2.3,5.073-5.752,5.073-3.929,0-5.608-2.648-5.608-4.886,0-2,1.727-4.854,5.69-4.854m.324,9.228c1.289,0,3.88-.612,3.88-4.211a4.2,4.2,0,0,0-4.286-4.55,3.762,3.762,0,0,0-4.123,4.052,4.4,4.4,0,0,0,4.53,4.709" transform="translate(39.532 8.057)" fill="#fff"/>
    <path id="Path_18" data-name="Path 18" d="M176.716,61.972c0-1.931,0-2.282-.033-2.677-.033-.425-.113-.629-.587-.686a4.754,4.754,0,0,0-.487-.032.13.13,0,0,1-.114-.1c0-.073.064-.1.227-.1.652,0,1.615.029,1.7.029.148,0,1.355-.029,1.793-.029a5.143,5.143,0,0,1,2.673.54,2.138,2.138,0,0,1,1,1.7c0,.921-.425,1.812-1.762,2.837,1.175,1.317,2.17,2.442,3,3.217a2.713,2.713,0,0,0,1.6.864,2.867,2.867,0,0,0,.506.045.121.121,0,0,1,.131.1c0,.073-.082.1-.344.1h-.9a3.17,3.17,0,0,1-1.533-.249,6.977,6.977,0,0,1-1.955-1.828c-.6-.673-1.24-1.478-1.55-1.815a.231.231,0,0,0-.2-.073l-1.825-.029c-.066,0-.1.029-.1.1v.293c0,1.2,0,2.166.066,2.677.048.366.131.6.57.657a5.306,5.306,0,0,0,.637.061c.1,0,.113.057.113.1s-.065.1-.226.1c-.783,0-1.7-.045-1.762-.045-.016,0-.979.045-1.417.045-.148,0-.228-.029-.228-.1a.1.1,0,0,1,.114-.1,2.093,2.093,0,0,0,.438-.061c.277-.057.311-.291.376-.657a22.97,22.97,0,0,0,.081-2.691Zm1.238,1.053a.179.179,0,0,0,.1.162,5.407,5.407,0,0,0,1.581.189,2.02,2.02,0,0,0,1.076-.221,2.117,2.117,0,0,0,.864-1.9,2.26,2.26,0,0,0-2.478-2.444,7.221,7.221,0,0,0-1.026.073.164.164,0,0,0-.114.147Z" transform="translate(44.549 8.1)" fill="#fff"/>
    <path id="Path_19" data-name="Path 19" d="M193.194,58.68c.179-.411.245-.485.343-.485.147,0,.2.176.344.456.26.527,2.558,5.661,3.437,7.547.522,1.111.913,1.272,1.223,1.362a2.267,2.267,0,0,0,.571.072c.082,0,.179.029.179.1s-.163.1-.327.1c-.209,0-1.27,0-2.265-.029-.277-.016-.5-.016-.5-.087s.032-.06.1-.089a.226.226,0,0,0,.131-.336l-1.286-2.85a.118.118,0,0,0-.132-.075h-3.309a.151.151,0,0,0-.147.1l-.813,1.988a2.343,2.343,0,0,0-.213.834c0,.248.245.336.489.336h.131c.115,0,.146.045.146.1s-.081.1-.211.1c-.342,0-1.127-.045-1.289-.045s-.862.045-1.45.045c-.179,0-.277-.029-.277-.1a.122.122,0,0,1,.13-.1c.1,0,.309-.015.423-.029.654-.073.93-.513,1.209-1.142Zm1.6,5.178c.063,0,.063-.029.049-.087l-1.42-3.407c-.079-.191-.163-.191-.242,0l-1.336,3.407c-.017.058,0,.087.048.087Z" transform="translate(48.626 8.043)" fill="#fff"/>
    <path id="Path_20" data-name="Path 20" d="M206.38,64.208c0,1.2,0,2.179.064,2.691.05.367.115.6.554.657a5.88,5.88,0,0,0,.656.06c.1,0,.113.058.113.1s-.066.1-.229.1c-.781,0-1.7-.046-1.778-.046-.065,0-1.06.046-1.482.046-.164,0-.228-.03-.228-.1,0-.045.032-.09.114-.09a1.942,1.942,0,0,0,.424-.057c.294-.058.374-.306.423-.673.066-.513.066-1.491.066-2.691V58.987L203,59.016c-.9.013-1.237.1-1.449.395a1.976,1.976,0,0,0-.229.393c-.032.1-.081.118-.146.118a.105.105,0,0,1-.1-.1c0-.132.3-1.242.311-1.346.033-.074.1-.233.148-.233a5.365,5.365,0,0,0,.634.144c.408.045.962.061,1.124.061h5.412a7.392,7.392,0,0,0,1.027-.061c.212-.029.344-.058.408-.058s.065.073.065.147c0,.38-.046,1.273-.046,1.419a.147.147,0,0,1-.131.162c-.065,0-.1-.044-.115-.22L209.9,59.7c-.049-.379-.359-.657-1.727-.686l-1.792-.029Z" transform="translate(52.851 8.057)" fill="#fff"/>
    <path id="Path_21" data-name="Path 21" d="M217.321,64.165c0,1.2,0,2.179.066,2.691.05.367.1.6.521.657a6.182,6.182,0,0,0,.653.06.105.105,0,0,1,.114.1c0,.057-.065.1-.228.1-.8,0-1.729-.046-1.792-.046-.083,0-.979.046-1.421.046-.146,0-.226-.03-.226-.1a.106.106,0,0,1,.114-.1,2.18,2.18,0,0,0,.441-.06c.277-.057.326-.29.375-.657.065-.513.081-1.491.081-2.691V61.97c0-1.93,0-2.282-.033-2.676-.032-.425-.146-.616-.456-.672a2.741,2.741,0,0,0-.441-.046.117.117,0,0,1-.114-.1c0-.072.068-.1.23-.1.472,0,1.367.029,1.45.029.064,0,.993-.029,1.432-.029.164,0,.229.029.229.1a.132.132,0,0,1-.114.1,1.705,1.705,0,0,0-.358.03c-.393.072-.473.249-.506.687-.017.393-.017.746-.017,2.676Z" transform="translate(57.361 8.101)" fill="#fff"/>
    <path id="Path_22" data-name="Path 22" d="M230.375,58.241c3.227,0,5.672,1.77,5.672,4.668,0,2.778-2.3,5.073-5.754,5.073-3.93,0-5.607-2.648-5.607-4.886,0-2,1.726-4.854,5.689-4.854m.326,9.228c1.287,0,3.88-.612,3.88-4.211a4.2,4.2,0,0,0-4.287-4.55,3.762,3.762,0,0,0-4.123,4.052,4.4,4.4,0,0,0,4.531,4.709" transform="translate(60.513 8.057)" fill="#fff"/>
    <path id="Path_23" data-name="Path 23" d="M242.014,66.125c.032,1.024.164,1.33.552,1.419a3.822,3.822,0,0,0,.719.073.106.106,0,0,1,.114.1c0,.073-.1.1-.261.1-.815,0-1.387-.044-1.514-.044s-.736.044-1.388.044c-.146,0-.229-.013-.229-.1a.107.107,0,0,1,.115-.1,2.511,2.511,0,0,0,.587-.073c.359-.089.407-.424.407-1.551V58.869c0-.5.081-.628.2-.628.162,0,.407.246.552.38.229.2,2.314,2.195,4.533,4.241,1.417,1.317,2.95,2.795,3.391,3.205l-.147-6.233c-.017-.8-.1-1.082-.538-1.156a5.317,5.317,0,0,0-.7-.057.107.107,0,0,1-.114-.117c0-.074.114-.089.278-.089.652,0,1.336.029,1.5.029s.637-.029,1.223-.029c.147,0,.261.015.261.089a.158.158,0,0,1-.164.117,1.8,1.8,0,0,0-.34.029c-.474.087-.506.336-.506,1.082l-.032,7.284c0,.82-.017.893-.114.893-.148,0-.294-.1-1.094-.76-.146-.118-2.216-1.944-3.731-3.366-1.665-1.563-3.277-3.085-3.718-3.523Z" transform="translate(65.485 8.057)" fill="#fff"/>
    <g id="Group_2" data-name="Group 2" transform="translate(38.225 37.977)">
      <g id="Group_1" data-name="Group 1" clip-path="url(#clip-path)">
        <rect id="Rectangle_1" data-name="Rectangle 1" width="87.021" height="67.66" transform="matrix(0.91, -0.415, 0.415, 0.91, -14.656, 6.679)" fill="#fff"/>
      </g>
    </g>
  </g>
</svg>
